<svg width="715" height="891" viewBox="0 0 715 891" fill="none" xmlns="http://www.w3.org/2000/svg">
<g opacity="0.38">
<path d="M43.6289 108.74C93.6167 78.2594 140.76 62.0025 150.92 63.6282C156.61 49.8106 167.989 21.6877 167.989 19.7365C244.068 -15.3768 311.043 5.10596 335.021 19.7365L350.871 56.313C448.408 86.5495 480.921 111.178 484.985 119.712C542.288 206.683 656.894 336.733 675.182 407.448C683.702 440.39 725.604 611.176 712.192 624.587C698.781 637.998 632.023 661.445 616.66 639.099C589.837 600.084 580.084 506.204 559.357 445.243L466.696 312.348L450.847 529.369V585.453C482.14 651.697 530.34 791.744 472.793 821.98C395.738 837.586 231.794 821.98 159.454 812.227L157.016 834.173C129.38 836.205 63.6238 830.515 21.6828 791.5C0.224625 737.854 43.6287 623.655 68.013 573.26V524.492L48.5056 311.129C24.9341 344.454 -26.842 418.176 -45.3741 446.462C-63.9061 474.748 -91.2979 587.485 -102.677 640.317C-104.682 647.752 -197.342 636.779 -200.214 618.372C-205.09 587.891 -188.022 457.435 -128.28 344.048C-68.5386 230.661 -5.13971 151.412 43.6289 108.74Z" fill="url(#paint0_linear_17340_763)" fill-opacity="0.25"/>
<path d="M126.534 801.254L57.0391 781.746L113.123 586.672C126.534 503.766 165.062 313.324 211.879 214.812C207.88 208.687 204.037 202.136 200.363 195.304C175.368 148.826 158.161 89.3381 152.138 62.4096L166.768 19.7366C237.971 -15.3768 308.604 5.10597 335.02 19.7366L352.089 58.7515C345.587 89.2319 323.56 166.042 287.471 229.442C251.382 292.841 198.468 505.391 176.522 603.741L126.534 801.254Z" fill="url(#paint1_linear_17340_763)" fill-opacity="0.6"/>
<path d="M194.029 60.0894L167.207 19.8546C233.044 -15.502 312.293 4.00698 335.458 19.8563C330.988 25.1396 317.902 40.8248 306.197 56.4308C256.209 38.1435 211.505 51.1485 194.029 60.0894Z" fill="#003D73"/>
<path d="M68.0132 528.15C120.171 540.206 217.629 555.373 310.351 552.589C316.787 543.642 324.142 538.764 332.583 539.123C339.501 539.417 346.244 543.278 352.772 549.938C388.457 546.441 422.186 539.614 450.847 528.15C453.773 528.15 452.066 565.539 450.847 584.234C434.669 589.988 411.296 596.236 382.659 601.187C407.231 660.174 426.583 747.918 437.435 803.693L393.544 820.762C385.009 750.454 361.844 610.081 337.46 611.057C313.076 612.032 315.108 797.597 319.172 890.257H259.43C264.962 815.967 269.982 689.424 288.437 610.25C222.283 611.809 145.102 603.731 68.0132 575.699V528.15Z" fill="url(#paint2_linear_17340_763)"/>
<path d="M304.977 56.4326L249.846 150.281C248.221 146.623 236.945 134.218 194.029 60.0902C237.921 38.632 286.283 48.7109 304.977 56.4326Z" fill="#E6EDF5"/>
<path d="M200 193.406L235.781 129L250.094 150.469L211.344 216.337L200 193.406Z" fill="#003D73"/>
<path d="M711.026 614.5C705.124 602.424 615.425 622.592 620.75 639.216C627 658.725 718.289 634.341 711.026 614.5Z" fill="#003D73"/>
</g>
<defs>
<linearGradient id="paint0_linear_17340_763" x1="-0.499989" y1="240.5" x2="578.5" y2="236.5" gradientUnits="userSpaceOnUse">
<stop stop-color="#C8E2FF"/>
<stop offset="0.283731" stop-color="#5BA2FF"/>
<stop offset="0.838382" stop-color="#0069C6"/>
</linearGradient>
<linearGradient id="paint1_linear_17340_763" x1="57" y1="434" x2="625.5" y2="437.5" gradientUnits="userSpaceOnUse">
<stop stop-color="#003D73" stop-opacity="0"/>
<stop offset="0.5" stop-color="#0058A6"/>
<stop offset="1" stop-color="#0073D9"/>
</linearGradient>
<linearGradient id="paint2_linear_17340_763" x1="113.5" y1="539" x2="452" y2="645" gradientUnits="userSpaceOnUse">
<stop stop-color="#991B33" stop-opacity="0"/>
<stop offset="1" stop-color="#FF2D55"/>
</linearGradient>
</defs>
</svg>
