<svg width="1324" height="730" viewBox="0 0 1324 730" fill="none" xmlns="http://www.w3.org/2000/svg">
<path d="M1116.75 715.079C1069.55 711.085 1228.4 412.26 1231.73 373.007C990.31 191.321 987.555 152.001 1305.64 311.577C1352.83 315.572 1211.56 611.987 1208.23 651.239C1204.91 690.492 1163.95 719.074 1116.75 715.079Z" fill="#E73026"/>
<path d="M282.015 710.713C234.649 710.704 183.002 709.415 183.013 670.022C183.023 630.629 579.136 569.492 626.501 569.5C1291.1 324.959 605.625 338.949 780.001 236C843.152 1.33203 857.568 28.6269 968.698 469.441C968.687 508.834 329.381 710.722 282.015 710.713Z" fill="#D7782D"/>
<path d="M112.228 348.04C64.8625 348.031 -0.00385386 369.721 0.00687672 330.328C0.0176073 290.935 38.424 259.007 85.7899 259.016C133.156 259.025 565.511 284.607 565.5 324C565.489 363.393 159.594 348.049 112.228 348.04Z" fill="#C71107"/>
<path d="M435.142 44.5C479.19 61.9177 741.51 57.6752 727.021 94.3072C771.068 111.725 712.532 130.939 727.021 94.3072C418.956 76.2722 498.87 179.637 435.143 175.5C254.642 120.807 394.845 273.872 435.142 44.5C466.5 82.5 470 58.2839 435.142 44.5Z" fill="#D7782D"/>
</svg>
