<svg width="2947" height="1301" viewBox="0 0 2947 1301" fill="none" xmlns="http://www.w3.org/2000/svg">
<path d="M315.501 405.5C552.501 273 2700 230 2821 335.5C2942 441 2999 816.5 2883 957C2767 1097.5 202.501 1143.5 210.501 1023C218.501 902.5 78.501 538 315.501 405.5Z" fill="#DA9A42" fill-opacity="0.33"/>
<path d="M236.378 827.123C278.327 826.191 324.434 825.119 375.006 823.894C1511.31 796.369 2458.71 865.889 729.762 942.415C370.198 958.33 781.862 1018.82 518.56 990.525C337.299 971.05 349.03 967.666 301.416 930.616C261.036 899.194 150.511 847.349 225.825 830.674C231.913 829.326 235.314 828.147 236.378 827.123C257.236 807.039 -620.522 846.169 236.378 827.123Z" fill="#43778B"/>
<path d="M2609.32 308.671C2859.16 308.671 2481.67 477.671 2412.21 484.671C2342.75 491.671 1986.28 306.737 2131.07 334.775C2430.05 392.671 2319.29 308.671 2609.32 308.671Z" fill="#62B3C5"/>
<path d="M1068.61 291.739C1194.83 470.572 1124.71 537.865 892.501 425.868C446.51 408.33 128.382 336.245 716.391 291.739C716.391 217.662 795.238 157.611 892.501 157.611C989.763 157.611 1068.61 217.662 1068.61 291.739Z" fill="#DB8642"/>
<path d="M1740.63 134.586C1866.86 313.972 1796.73 381.474 1564.5 269.13C1731.34 248.469 1307.35 176.691 1388.37 134.586C1388.37 60.2794 1467.23 0.0421979 1564.5 0.0421979C1661.77 0.0421979 1740.63 60.2794 1740.63 134.586Z" fill="#DB8642"/>
<path d="M2360.2 896.237C2402.68 956.734 2372.6 1051.39 2293.01 1107.66C2213.41 1163.92 2114.45 1160.49 2071.96 1100C2029.47 1039.5 1389.71 577.346 2139.15 888.577C2888.59 1199.81 2317.71 835.74 2360.2 896.237Z" fill="#DB8642"/>
</svg>
